<mxfile host="app.diagrams.net" agent="Mozilla/5.0 (Macintosh; Intel Mac OS X 10_15_7) AppleWebKit/537.36 (KHTML, like Gecko) Chrome/138.0.0.0 Safari/537.36" version="28.0.7">
  <diagram name="Page-1" id="hKMuID0U8rs_4JC-Y38t">
    <mxGraphModel grid="1" page="1" gridSize="10" guides="1" tooltips="1" connect="1" arrows="1" fold="1" pageScale="1" pageWidth="827" pageHeight="1169" math="0" shadow="0">
      <root>
        <mxCell id="0" />
        <mxCell id="1" parent="0" />
        <mxCell id="Mx6EFH9LAYgf8zmXd2bW-1" value="&lt;b style=&quot;font-size: 26px;&quot;&gt;Shared&lt;/b&gt;&lt;span style=&quot;font-size: 26px;&quot;&gt;&amp;nbsp;Patient Genomic Record&lt;/span&gt;" style="rounded=1;whiteSpace=wrap;html=1;fillColor=#f5f5f5;fontColor=#333333;strokeColor=#666666;" vertex="1" parent="1">
          <mxGeometry x="200" y="50" width="540" height="70" as="geometry" />
        </mxCell>
        <mxCell id="Mx6EFH9LAYgf8zmXd2bW-2" value="IHE Query for Existing Data&amp;nbsp;&lt;div&gt;mobile (QEDm)&lt;/div&gt;" style="rounded=1;whiteSpace=wrap;html=1;fillColor=#e1d5e7;strokeColor=#9673a6;" vertex="1" parent="1">
          <mxGeometry x="380" y="140" width="190" height="60" as="geometry" />
        </mxCell>
        <mxCell id="Mx6EFH9LAYgf8zmXd2bW-3" value="ITI-67 and ITI-68&lt;br&gt;HL7 FHIR RESTful" style="rounded=1;whiteSpace=wrap;html=1;fillColor=#f8cecc;strokeColor=#b85450;" vertex="1" parent="1">
          <mxGeometry x="180" y="210" width="190" height="60" as="geometry" />
        </mxCell>
        <mxCell id="Mx6EFH9LAYgf8zmXd2bW-4" value="ITI-8&lt;br&gt;HL7 v2.5.1 ADT_A31 and ADT_A40&amp;nbsp;" style="rounded=1;whiteSpace=wrap;html=1;fillColor=#f8cecc;strokeColor=#b85450;" vertex="1" parent="1">
          <mxGeometry x="580" y="210" width="190" height="60" as="geometry" />
        </mxCell>
        <mxCell id="Mx6EFH9LAYgf8zmXd2bW-6" value="Security - OAuth2&amp;nbsp;" style="rounded=1;whiteSpace=wrap;html=1;fillColor=#d5e8d4;strokeColor=#82b366;" vertex="1" parent="1">
          <mxGeometry x="180" y="640" width="590" height="40" as="geometry" />
        </mxCell>
        <mxCell id="Mx6EFH9LAYgf8zmXd2bW-7" value="IHE Internet User Authorisation (IUA)" style="rounded=1;whiteSpace=wrap;html=1;fillColor=#e1d5e7;strokeColor=#9673a6;" vertex="1" parent="1">
          <mxGeometry x="180" y="330" width="390" height="40" as="geometry" />
        </mxCell>
        <mxCell id="Mx6EFH9LAYgf8zmXd2bW-11" value="IHE Mobile Access to Health Documents (MHD)" style="rounded=1;whiteSpace=wrap;html=1;fillColor=#e1d5e7;strokeColor=#9673a6;" vertex="1" parent="1">
          <mxGeometry x="180" y="140" width="190" height="60" as="geometry" />
        </mxCell>
        <mxCell id="Mx6EFH9LAYgf8zmXd2bW-12" value="IHE Patient Identifier Cross Referencing (PIX)" style="rounded=1;whiteSpace=wrap;html=1;fillColor=#e1d5e7;strokeColor=#9673a6;" vertex="1" parent="1">
          <mxGeometry x="580" y="140" width="190" height="60" as="geometry" />
        </mxCell>
        <mxCell id="Mx6EFH9LAYgf8zmXd2bW-13" value="HL7 over http" style="rounded=1;whiteSpace=wrap;html=1;fillColor=#f8cecc;strokeColor=#b85450;" vertex="1" parent="1">
          <mxGeometry x="580" y="380" width="190" height="40" as="geometry" />
        </mxCell>
        <mxCell id="Mx6EFH9LAYgf8zmXd2bW-14" value="Adheres to NW HL7 FHIR Base&amp;nbsp;" style="rounded=0;whiteSpace=wrap;html=1;fillColor=#fff2cc;strokeColor=#d6b656;" vertex="1" parent="1">
          <mxGeometry x="30" y="215" width="130" height="50" as="geometry" />
        </mxCell>
        <mxCell id="Mx6EFH9LAYgf8zmXd2bW-15" value="IHE MHD is compatible with IHE XDS&amp;nbsp;" style="rounded=0;whiteSpace=wrap;html=1;fillColor=#fff2cc;strokeColor=#d6b656;" vertex="1" parent="1">
          <mxGeometry x="30" y="145" width="130" height="50" as="geometry" />
        </mxCell>
        <mxCell id="Mx6EFH9LAYgf8zmXd2bW-16" value="" style="shape=flexArrow;endArrow=classic;html=1;rounded=0;endWidth=120;endSize=14.67;width=96;" edge="1" parent="1">
          <mxGeometry width="50" height="50" relative="1" as="geometry">
            <mxPoint x="469.38" y="440" as="sourcePoint" />
            <mxPoint x="469.38" y="520" as="targetPoint" />
          </mxGeometry>
        </mxCell>
        <mxCell id="Mx6EFH9LAYgf8zmXd2bW-18" value="Future&amp;nbsp;&lt;div&gt;Enhancements&lt;/div&gt;" style="edgeLabel;html=1;align=center;verticalAlign=middle;resizable=0;points=[];" connectable="0" vertex="1" parent="Mx6EFH9LAYgf8zmXd2bW-16">
          <mxGeometry x="-0.125" y="-8" relative="1" as="geometry">
            <mxPoint x="8" as="offset" />
          </mxGeometry>
        </mxCell>
        <mxCell id="Mx6EFH9LAYgf8zmXd2bW-17" value="IHE Health Information Exchange (HIE)" style="rounded=1;whiteSpace=wrap;html=1;fillColor=#e1d5e7;strokeColor=#9673a6;" vertex="1" parent="1">
          <mxGeometry x="180" y="530" width="390" height="40" as="geometry" />
        </mxCell>
        <mxCell id="Mx6EFH9LAYgf8zmXd2bW-19" value="Adds national genomic records" style="rounded=0;whiteSpace=wrap;html=1;fillColor=#fff2cc;strokeColor=#d6b656;" vertex="1" parent="1">
          <mxGeometry x="30" y="525" width="130" height="50" as="geometry" />
        </mxCell>
        <mxCell id="Mx6EFH9LAYgf8zmXd2bW-20" value="IHE Patient Demographic Query mobile (PDQm)" style="rounded=1;whiteSpace=wrap;html=1;fillColor=#e1d5e7;strokeColor=#9673a6;" vertex="1" parent="1">
          <mxGeometry x="580" y="530" width="190" height="40" as="geometry" />
        </mxCell>
        <mxCell id="Mx6EFH9LAYgf8zmXd2bW-21" value="&lt;div&gt;ITI-78&lt;/div&gt;HL7 FHIR RESTful" style="rounded=1;whiteSpace=wrap;html=1;fillColor=#f8cecc;strokeColor=#b85450;" vertex="1" parent="1">
          <mxGeometry x="580" y="580" width="190" height="50" as="geometry" />
        </mxCell>
        <mxCell id="Mx6EFH9LAYgf8zmXd2bW-23" value="PCC-44&lt;br&gt;HL7 FHIR RESTful" style="rounded=1;whiteSpace=wrap;html=1;fillColor=#f8cecc;strokeColor=#b85450;" vertex="1" parent="1">
          <mxGeometry x="380" y="210" width="190" height="60" as="geometry" />
        </mxCell>
        <mxCell id="Mx6EFH9LAYgf8zmXd2bW-24" value="ITI-178 (FHIR RESTful)" style="rounded=1;whiteSpace=wrap;html=1;fillColor=#f8cecc;strokeColor=#b85450;" vertex="1" parent="1">
          <mxGeometry x="180" y="380" width="390" height="40" as="geometry" />
        </mxCell>
        <mxCell id="Mx6EFH9LAYgf8zmXd2bW-26" value="ITI-67 and ITI-68&lt;br&gt;HL7 FHIR RESTful" style="rounded=1;whiteSpace=wrap;html=1;fillColor=#f8cecc;strokeColor=#b85450;" vertex="1" parent="1">
          <mxGeometry x="180" y="580" width="190" height="50" as="geometry" />
        </mxCell>
        <mxCell id="Mx6EFH9LAYgf8zmXd2bW-27" value="PCC-44&lt;br&gt;HL7 FHIR RESTful" style="rounded=1;whiteSpace=wrap;html=1;fillColor=#f8cecc;strokeColor=#b85450;" vertex="1" parent="1">
          <mxGeometry x="380" y="580" width="190" height="50" as="geometry" />
        </mxCell>
        <mxCell id="Mx6EFH9LAYgf8zmXd2bW-28" value="Security - OAuth2&amp;nbsp;&amp;nbsp;" style="rounded=1;whiteSpace=wrap;html=1;fillColor=#d5e8d4;strokeColor=#82b366;" vertex="1" parent="1">
          <mxGeometry x="180" y="280" width="590" height="40" as="geometry" />
        </mxCell>
        <mxCell id="Mx6EFH9LAYgf8zmXd2bW-29" value="ITI-178 + SMART on FHIR (FHIR RESTful)" style="rounded=1;whiteSpace=wrap;html=1;fillColor=#f8cecc;strokeColor=#b85450;" vertex="1" parent="1">
          <mxGeometry x="180" y="690" width="590" height="40" as="geometry" />
        </mxCell>
        <mxCell id="Mx6EFH9LAYgf8zmXd2bW-30" value="Follows NHS England HL7 v2 ADT Specification" style="rounded=0;whiteSpace=wrap;html=1;fillColor=#fff2cc;strokeColor=#d6b656;" vertex="1" parent="1">
          <mxGeometry x="790" y="215" width="130" height="50" as="geometry" />
        </mxCell>
      </root>
    </mxGraphModel>
  </diagram>
</mxfile>
